<?xml version="1.0" standalone="no"?><!DOCTYPE svg PUBLIC "-//W3C//DTD SVG 1.1//EN" "http://www.w3.org/Graphics/SVG/1.1/DTD/svg11.dtd"><svg t="1523320670088" class="icon" style="" viewBox="0 0 1024 1024" version="1.1" xmlns="http://www.w3.org/2000/svg" p-id="7544" xmlns:xlink="http://www.w3.org/1999/xlink" width="200" height="200"><defs><style type="text/css"></style></defs><path d="M511.555373 64.008826c-247.25943 0-447.705672 200.451358-447.705672 447.703625 0 247.252267 200.446241 447.705672 447.705672 447.705672 247.251244 0 447.697485-200.454428 447.697485-447.705672C959.252859 264.460184 758.806617 64.008826 511.555373 64.008826L511.555373 64.008826 511.555373 64.008826zM511.555373 895.903553c-211.859175 0-384.191102-172.359556-384.191102-384.191102 0-211.857129 172.3483-384.189056 384.191102-384.189056 211.831546 0 384.188033 172.352393 384.188033 384.189056C895.743406 723.568557 723.410456 895.903553 511.555373 895.903553L511.555373 895.903553 511.555373 895.903553zM447.190437 611.090832l-127.572514-98.91994-63.444984 64.12753 214.102263 192.625112c0 0 126.775358-288.473087 298.232358-421.846724l-17.736966-26.605961C750.771617 320.471872 609.09692 391.101489 447.190437 611.090832L447.190437 611.090832 447.190437 611.090832z" p-id="7545" fill="#FF8C00"></path></svg>